<?xml version="1.0" encoding="utf-8"?>
<!-- Generator: Adobe Illustrator 27.5.0, SVG Export Plug-In . SVG Version: 6.00 Build 0)  -->
<svg version="1.1" id="Layer_1" xmlns="http://www.w3.org/2000/svg" xmlns:xlink="http://www.w3.org/1999/xlink" x="0px" y="0px"
	 viewBox="0 0 512 512" style="enable-background:new 0 0 512 512;" xml:space="preserve">
<g>
	<path d="M128,0h178.7c17,0,33.3,6.7,45.3,18.7L429.3,96c12,12,18.7,28.3,18.7,45.3V448c0,35.3-28.7,64-64,64H128
		c-35.3,0-64-28.7-64-64V64C64,28.7,92.7,0,128,0z M160,192c-17.7,0-32,14.3-32,32v32h64v-64H160z M128,352h80h96h80v-64h-80h-96
		h-80V352z M384,224c0-17.7-14.3-32-32-32h-32v64h64V224z M224,192v64h64v-64H224z M352,448c17.7,0,32-14.3,32-32v-32h-64v64H352z
		 M224,384v64h64v-64H224z M128,416c0,17.7,14.3,32,32,32h32v-64h-64V416z"/>
</g>
</svg>
