<?xml version="1.0" encoding="utf-8"?>
<!-- Generator: Adobe Illustrator 28.0.0, SVG Export Plug-In . SVG Version: 6.00 Build 0)  -->
<svg version="1.1" id="Layer_1" xmlns="http://www.w3.org/2000/svg" xmlns:xlink="http://www.w3.org/1999/xlink" x="0px" y="0px"
	 viewBox="0 0 512 512" style="enable-background:new 0 0 512 512;" xml:space="preserve">
<g>
	<path d="M505.81,176.44l-47.07-47.07c-7.87-7.77-20.38-8.23-28.8-1.07c-13.01,11.07-32.34,10.33-44.46-1.71
		c-12.03-12.12-12.77-31.44-1.71-44.45c7.16-8.43,6.7-20.93-1.07-28.8L335.58,6.22c-8.29-8.27-21.72-8.27-30.01,0l-75.04,75.03
		c-4.63,4.65-8.13,10.31-10.21,16.53c-0.82,2.43-2.73,4.33-5.15,5.15c-6.23,2.08-11.89,5.58-16.53,10.22L6.21,305.59
		c-8.27,8.29-8.27,21.72,0,30.01l47.13,47.07c7.87,7.77,20.38,8.23,28.8,1.07c13.71-11.79,34.38-10.24,46.17,3.47
		c10.56,12.27,10.56,30.42,0,42.7c-7.16,8.43-6.7,20.93,1.07,28.8l47.07,47.07c8.29,8.27,21.72,8.27,30.01,0l192.43-192.43
		c4.64-4.64,8.13-10.3,10.22-16.52c0.82-2.43,2.73-4.34,5.16-5.16c6.22-2.08,11.88-5.58,16.52-10.21l75.03-75.04
		C514.06,198.12,514.06,184.73,505.81,176.44z M262.21,144.82c-6.66,6.67-17.47,6.67-24.14,0l0,0l-12.28-12.28
		c-6.57-6.76-6.41-17.57,0.36-24.13c6.62-6.43,17.16-6.43,23.78,0.01l12.28,12.27C268.87,127.34,268.87,138.15,262.21,144.82
		L262.21,144.82z M309.14,191.75c-6.66,6.66-17.46,6.66-24.13,0l-11.73-11.73c-6.67-6.67-6.67-17.47,0-24.14
		c6.67-6.67,17.47-6.67,24.14,0l11.73,11.73c6.68,6.65,6.7,17.46,0.05,24.14l-0.03,0.03L309.14,191.75z M356.08,238.69
		c-6.66,6.67-17.47,6.67-24.14,0l0,0l-11.73-11.73c-6.57-6.76-6.41-17.57,0.36-24.13c6.62-6.43,17.16-6.43,23.78,0.01l11.73,11.73
		c6.69,6.64,6.74,17.44,0.1,24.14l-0.05,0.05L356.08,238.69z M403.47,286.2c-6.66,6.67-17.47,6.67-24.14,0l0,0l-12.2-12.27
		c-6.74-6.58-6.87-17.39-0.29-24.14c6.58-6.74,17.39-6.87,24.14-0.29c0.12,0.11,0.23,0.23,0.35,0.35l12.21,12.26
		c6.66,6.67,6.66,17.47-0.01,24.14l0,0L403.47,286.2z"/>
</g>
</svg>
